<svg xmlns="http://www.w3.org/2000/svg" xmlns:xlink="http://www.w3.org/1999/xlink" width="24" height="24" fill="none"><style><![CDATA[.B{stroke-linejoin:round}.C{stroke-linecap:round}]]></style><g stroke="#777d82" stroke-width="1.5" class="B"><path d="M16 2v4M8 2v4M3 9h18" class="C"/><path d="M19 4H5a2 2 0 0 0-2 2v13a2 2 0 0 0 2 2h14a2 2 0 0 0 2-2V6a2 2 0 0 0-2-2z"/><g class="C"><use xlink:href="#B"/><use xlink:href="#B" x="5"/><use xlink:href="#B" x="-5" y="4"/><use xlink:href="#B" y="4"/></g></g><defs ><path id="B" d="M12.013 12.729c-.138 0-.25.112-.249.25a.25.25 0 1 0 .5 0 .25.25 0 0 0-.251-.25"/></defs></svg>