<svg xmlns="http://www.w3.org/2000/svg" width="70" height="53" fill="none" xmlns:v="https://vecta.io/nano"><g filter="url(#B)"><mask id="A" fill="#fff"><path fill-rule="evenodd" d="M18 8a8 8 0 0 0-8 8v12a8 8 0 0 0 8 8h12.17l3.574 4.127a1 1 0 0 0 1.512 0L38.83 36H52a8 8 0 0 0 8-8V16a8 8 0 0 0-8-8H18z"/></mask><path fill-rule="evenodd" d="M18 8a8 8 0 0 0-8 8v12a8 8 0 0 0 8 8h12.17l3.574 4.127a1 1 0 0 0 1.512 0L38.83 36H52a8 8 0 0 0 8-8V16a8 8 0 0 0-8-8H18z" fill="#fff"/><path d="M30.17 36l.756-.655-.299-.345h-.457v1zm3.574 4.127l-.756.655h0l.756-.655zm1.512 0l.756.655-.756-.655zM38.83 36v-1h-.457l-.299.345.756.655zM11 16a7 7 0 0 1 7-7V7a9 9 0 0 0-9 9h2zm0 12V16H9v12h2zm7 7a7 7 0 0 1-7-7H9a9 9 0 0 0 9 9v-2zm12.17 0H18v2h12.17v-2zm4.33 4.472l-3.574-4.127-1.512 1.309 3.574 4.127 1.512-1.309zm0 0l-1.512 1.309a2 2 0 0 0 3.024 0L34.5 39.473zm3.574-4.127L34.5 39.473l1.512 1.309 3.574-4.127-1.512-1.309zM52 35H38.83v2H52v-2zm7-7a7 7 0 0 1-7 7v2a9 9 0 0 0 9-9h-2zm0-12v12h2V16h-2zm-7-7a7 7 0 0 1 7 7h2a9 9 0 0 0-9-9v2zM18 9h34V7H18v2z" fill="#e6eaed" mask="url(#A)"/></g><defs><filter id="B" x="0" y="0" width="70" height="52.473" filterUnits="userSpaceOnUse" color-interpolation-filters="sRGB"><feFlood flood-opacity="0" result="A"/><feColorMatrix in="SourceAlpha" values="0 0 0 0 0 0 0 0 0 0 0 0 0 0 0 0 0 0 127 0"/><feOffset dy="2"/><feGaussianBlur stdDeviation="5"/><feColorMatrix values="0 0 0 0 0.172361 0 0 0 0 0.225083 0 0 0 0 0.304167 0 0 0 0.08 0"/><feBlend in2="A"/><feBlend in="SourceGraphic"/></filter></defs></svg>