<svg width="20" height="20" viewBox="0 0 20 20" fill="none" xmlns="http://www.w3.org/2000/svg">
<path d="M11.1868 0.98288L13.6925 6.26859L18.8239 6.81288C19.0836 6.83808 19.33 6.94012 19.5315 7.10596C19.733 7.2718 19.8804 7.49393 19.9551 7.74398C20.0298 7.99403 20.0282 8.26066 19.9506 8.50983C19.8731 8.75899 19.723 8.97939 19.5196 9.14288L15.4282 12.5072L16.6939 18.1629C16.7505 18.4143 16.7318 18.6767 16.6402 18.9176C16.5487 19.1584 16.3883 19.367 16.179 19.5173C15.9697 19.6677 15.7209 19.7531 15.4634 19.763C15.2059 19.7728 14.9512 19.7067 14.731 19.5729L9.99962 16.6943L5.2639 19.5715C5.04362 19.705 4.78894 19.771 4.5315 19.761C4.27407 19.751 4.02524 19.6656 3.81595 19.5154C3.60666 19.3651 3.44614 19.1567 3.35434 18.916C3.26254 18.6753 3.24351 18.4129 3.29962 18.1615L4.57105 12.5072L0.47962 9.14288C0.277649 8.97894 0.128932 8.7587 0.0523396 8.51011C-0.0242528 8.26151 -0.0252677 7.99576 0.0494237 7.74658C0.124115 7.49741 0.271146 7.27604 0.471858 7.11056C0.67257 6.94509 0.917916 6.84297 1.17676 6.81717L6.30676 6.27288L8.81248 0.98288C8.91914 0.758346 9.0873 0.568665 9.29742 0.435853C9.50755 0.303041 9.75104 0.232544 9.99962 0.232544C10.2482 0.232544 10.4917 0.303041 10.7018 0.435853C10.9119 0.568665 11.0801 0.758346 11.1868 0.98288Z" fill="#D8DEE0"/>
</svg>
