<svg width="0" height="0" class="hidden">
  <symbol fill="none" xmlns="http://www.w3.org/2000/svg" viewBox="0 0 32 32" id="user">
    <path d="M16 .7C7.563.7.7 7.563.7 16c0 8.437 6.863 15.3 15.3 15.3 8.437 0 15.3-6.863 15.3-15.3C31.3 7.563 24.437.7 16 .7zm0 28c-4.02 0-7.605-1.884-9.933-4.81a12.424 12.424 0 016.451-4.4A6.508 6.508 0 019.5 14c0-3.584 2.916-6.5 6.5-6.5s6.5 2.916 6.5 6.5a6.514 6.514 0 01-3.019 5.49 12.42 12.42 0 016.452 4.401C23.605 26.816 20.021 28.7 16 28.7z" fill="#777D82"></path>
  </symbol>
  <symbol fill="none" xmlns="http://www.w3.org/2000/svg" viewBox="0 0 24 24" id="burger">
    <path d="M6 8h12M6 12h12M6 16h12" stroke="#777D82" stroke-width="2" stroke-linecap="round" stroke-linejoin="round"></path>
  </symbol>
  <symbol fill="none" xmlns="http://www.w3.org/2000/svg" viewBox="0 0 30 30" id="fi_heart">
    <path d="M24.515 6.768a5.913 5.913 0 00-1.92-1.308 5.824 5.824 0 00-4.533 0 5.914 5.914 0 00-1.921 1.308L15 7.931l-1.141-1.163a5.866 5.866 0 00-4.187-1.767c-1.57 0-3.077.635-4.188 1.767a6.094 6.094 0 00-1.734 4.267c0 1.6.624 3.136 1.734 4.268l1.141 1.162L15 25l8.374-8.535 1.141-1.162c.55-.56.986-1.226 1.284-1.958a6.133 6.133 0 000-4.62 6.042 6.042 0 00-1.284-1.957v0z" stroke="#777D82" stroke-width="2" stroke-linecap="round" stroke-linejoin="round"></path>
  </symbol>
  <symbol fill="none" xmlns="http://www.w3.org/2000/svg" viewBox="0 0 16 16" id="x">
    <path fill-rule="evenodd" clip-rule="evenodd" d="M8 0a8 8 0 100 16A8 8 0 008 0zM6.04 4.626A1 1 0 104.626 6.04L6.586 8l-1.96 1.96a1 1 0 001.414 1.414L8 9.414l1.96 1.96a1 1 0 001.414-1.414L9.414 8l1.96-1.96A1 1 0 009.96 4.626L8 6.586l-1.96-1.96z" fill="#AAAFB4"></path>
  </symbol>
  <symbol fill="none" xmlns="http://www.w3.org/2000/svg" viewBox="0 0 21 22" id="round">
    <path d="M10.5 4.33a6.67 6.67 0 11-3.189.812m.001 2.563V4.757H4.364" stroke="#777D82" stroke-width="1.5" stroke-linecap="round" stroke-linejoin="round"></path>
  </symbol>
  <symbol fill="none" xmlns="http://www.w3.org/2000/svg" viewBox="0 0 24 24" id="cross">
    <path d="M8 8l8 8m0-8l-8 8" stroke="#777D82" stroke-width="1.5" stroke-linecap="round" stroke-linejoin="round"></path>
  </symbol>
  <symbol fill="none" xmlns="http://www.w3.org/2000/svg" viewBox="0 0 12 12" id="rate-full">
    <g clip-path="url(#clip0)">
      <path d="M6.712.59l1.504 3.17 3.078.327a.788.788 0 01.418 1.398L9.257 7.504l.76 3.394a.787.787 0 01-1.178.846l-2.84-1.727-2.84 1.726a.789.789 0 01-1.18-.846l.764-3.393L.288 5.486A.788.788 0 01.706 4.09l3.078-.326L5.288.59a.789.789 0 011.424 0z" fill="#FF9431"></path>
    </g>
    <defs>
      <clipPath id="clip0">
        <path fill="#fff" d="M0 0h12v12H0z"></path>
      </clipPath>
    </defs>
  </symbol>
  <symbol fill="none" xmlns="http://www.w3.org/2000/svg" viewBox="0 0 20 20" id="room">
    <path clip-rule="evenodd" d="M9.537 18.333H4.259A1.758 1.758 0 012.5 16.574V7.777a1.76 1.76 0 011.76-1.759h5.277a1.76 1.76 0 011.759 1.76v8.796a1.76 1.76 0 01-1.76 1.76z" stroke="#777D82" stroke-width="1.5" stroke-linecap="round" stroke-linejoin="round"></path>
    <path d="M8.126 6.018l.816-3.047a1.76 1.76 0 012.155-1.244l5.098 1.366a1.76 1.76 0 011.244 2.155l-2.277 8.496a1.76 1.76 0 01-2.154 1.244l-1.712-.458" stroke="#777D82" stroke-width="1.5" stroke-linecap="round" stroke-linejoin="round"></path>
  </symbol>
  <symbol fill="none" xmlns="http://www.w3.org/2000/svg" viewBox="0 0 20 20" id="users">
    <path clip-rule="evenodd" d="M6.665 10a2.91 2.91 0 100-5.82 2.91 2.91 0 000 5.82zm7.503 0a2.084 2.084 0 100-4.168 2.084 2.084 0 000 4.168z" stroke="#777D82" stroke-width="1.5" stroke-linecap="round" stroke-linejoin="round"></path>
    <path d="M1.663 16.67v-.848a3.32 3.32 0 013.32-3.32h3.364a3.32 3.32 0 013.32 3.32v.848m2.501-4.169h.92a3.32 3.32 0 013.32 3.32v.848" stroke="#777D82" stroke-width="1.5" stroke-linecap="round" stroke-linejoin="round"></path>
  </symbol>
  <symbol fill="none" xmlns="http://www.w3.org/2000/svg" viewBox="0 0 16 16" id="point-cat">
    <path fill-rule="evenodd" clip-rule="evenodd" d="M2.333 6.333a5.667 5.667 0 1111.334 0c0 2.403-1.373 4.638-2.649 6.212A19.964 19.964 0 018.65 14.99l-.168.143-.047.038-.013.01-.003.004h-.002L8 14.667l-.417.52h-.001l-.004-.004-.013-.01-.046-.038a17.716 17.716 0 01-.757-.675 19.967 19.967 0 01-1.78-1.914c-1.275-1.576-2.649-3.81-2.649-6.213zm3 0a2.667 2.667 0 115.334 0 2.667 2.667 0 01-5.333 0z" fill="#E53B35"></path>
    <path d="M7.583 15.187c.244.195.59.195.834 0L8 14.667l-.417.52z" fill="#E53B35"></path>
  </symbol>
  <symbol fill="none" xmlns="http://www.w3.org/2000/svg" viewBox="0 0 12 12" id="man">
    <path d="M7.6 1.6c0 .68-.52 1.2-1.2 1.2-.68 0-1.2-.52-1.2-1.2C5.2.92 5.72.4 6.4.4c.68 0 1.2.52 1.2 1.2zm1.72 4.64c-.24-.08-1.68-.76-1.68-.76l-.8-1.6c-.28-.56-.44-.68-.8-.68h-.56c-.28 0-.4.08-.56.2L3.4 4.6c-.12.08-.2.16-.28.32l-.32 2c-.04.32.12.44.36.48.16.04.4-.04.48-.28L4 5.28l1-.68c-.16.68-.32 1.44-.4 1.72-.08.44.16.76.32 1.04.16.24 2.4 3.48 2.68 3.84.28.36.56.52.96.32.36-.16.28-.6.08-.88S6.2 6.96 6.2 6.96l.36-1.52s.28.36.4.52c.08.08.12.12.32.2.2.12 1.2.52 1.52.64.28.12.6.16.76-.08.12-.16-.04-.4-.24-.48z" fill="#777D82"></path>
    <path d="M4.32 7.6l-.48 1.48-1.24 1.6c-.2.28-.36.6 0 .84.4.28.68-.08.88-.28.2-.2.92-1.12 1.12-1.36.16-.16.2-.28.28-.44.04-.08.2-.48.28-.72L4.32 7.6z" fill="#777D82"></path>
  </symbol>
  <symbol fill="none" xmlns="http://www.w3.org/2000/svg" viewBox="0 0 17 16" id="vb">
    <path d="M14.441 1.561c-.397-.365-2.004-1.533-5.586-1.55 0 0-4.222-.255-6.28 1.633C1.429 2.79 1.025 4.464.984 6.545c-.042 2.078-.096 5.974 3.659 7.03h.003l-.003 1.61s-.023.653.406.784c.519.16.826-.336 1.322-.87.272-.295.647-.724.932-1.053 2.567.214 4.542-.279 4.766-.352.519-.17 3.454-.545 3.931-4.44.493-4.008-.24-6.547-1.559-7.693zm.436 7.41c-.404 3.253-2.782 3.458-3.22 3.599-.186.06-1.921.493-4.104.349 0 0-1.627 1.962-2.132 2.471-.08.08-.173.112-.234.096-.087-.022-.112-.125-.109-.275 0-.218.013-2.68.013-2.68-.003 0-.003 0 0 0-3.179-.88-2.993-4.196-2.958-5.931.035-1.735.362-3.16 1.332-4.117C5.203.908 8.79 1.142 8.79 1.142c3.029.012 4.479.925 4.815 1.229 1.117.96 1.687 3.25 1.27 6.6z" fill="#fff"></path>
    <path d="M10.332 6.66a.203.203 0 01-.202-.192c-.035-.688-.359-1.024-1.018-1.06a.204.204 0 01.022-.406c.871.048 1.357.548 1.402 1.444a.2.2 0 01-.192.211c-.006.003-.01.003-.012.003z" fill="#fff"></path>
    <path d="M11.368 7.006h-.003a.204.204 0 01-.199-.208c.016-.691-.182-1.251-.605-1.712-.42-.461-.999-.711-1.764-.766a.201.201 0 01-.185-.217.201.201 0 01.217-.186c.865.064 1.546.365 2.033.896.49.535.727 1.204.71 1.995a.205.205 0 01-.204.198z" fill="#fff"></path>
    <path d="M12.43 7.422a.2.2 0 01-.201-.202c-.01-1.239-.365-2.183-1.089-2.89-.713-.698-1.62-1.054-2.685-1.063a.204.204 0 010-.407c1.174.01 2.173.404 2.964 1.178.794.775 1.2 1.844 1.213 3.176a.2.2 0 01-.201.208c.003 0 .003 0 0 0zM9.16 9.167s.284.026.438-.163l.298-.375c.144-.185.492-.304.832-.115a8.3 8.3 0 01.742.474c.228.166.689.55.692.554.22.185.272.457.122.749v.006a3.122 3.122 0 01-.621.765c-.004 0-.004.003-.007.003-.214.18-.426.282-.63.305-.026.006-.055.006-.093.006a.873.873 0 01-.27-.042l-.006-.01c-.32-.089-.851-.313-1.735-.803a10.301 10.301 0 01-1.46-.963 7.475 7.475 0 01-.656-.583l-.022-.022-.022-.023a23.674 23.674 0 00-.023-.022l-.022-.023a8.034 8.034 0 01-.583-.656 10.122 10.122 0 01-.963-1.46c-.49-.886-.714-1.418-.804-1.735l-.01-.006a.872.872 0 01-.041-.269c0-.038 0-.067.006-.093.026-.208.128-.416.304-.63 0-.004.004-.004.004-.007a3.05 3.05 0 01.765-.62H5.4c.288-.151.56-.1.75.12 0 0 .387.465.553.692.157.215.368.554.474.743.189.34.07.688-.115.832l-.375.298c-.189.154-.163.439-.163.439s.554 2.106 2.634 2.634z" fill="#fff"></path>
  </symbol>
  <symbol fill="none" xmlns="http://www.w3.org/2000/svg" viewBox="0 0 17 14" id="tg">
    <path d="M2.075 5.828c4.294-1.91 7.158-3.17 8.591-3.778C14.758.312 15.608.01 16.163 0c.122-.002.395.029.571.175.15.124.19.29.21.407.02.118.044.384.024.593-.221 2.378-1.18 8.15-1.669 10.814-.206 1.128-.613 1.506-1.007 1.543-.855.08-1.505-.578-2.334-1.132-1.296-.868-2.029-1.408-3.287-2.255-1.455-.979-.512-1.517.317-2.396.217-.23 3.987-3.73 4.06-4.048.009-.04.017-.188-.069-.266-.086-.079-.213-.052-.305-.03-.13.03-2.202 1.428-6.215 4.193-.587.413-1.12.613-1.597.603-.526-.012-1.538-.304-2.29-.553C1.648 7.34.915 7.179.978 6.659c.034-.27.4-.548 1.097-.83z" fill="#fff"></path>
  </symbol>
  <symbol fill="none" xmlns="http://www.w3.org/2000/svg" viewBox="0 0 17 16" id="wa">
    <path d="M13.733 2.335C12.263.822 10.23 0 8.155 0 3.744 0 .198 3.59.24 7.957c0 1.384.39 2.724 1.038 3.935L.155 16l4.194-1.081a7.721 7.721 0 003.763.951c4.367 0 7.913-3.589 7.913-7.956a7.848 7.848 0 00-2.292-5.579zM8.155 14.53c-1.168 0-2.335-.303-3.33-.908l-.26-.13-2.508.648.65-2.464-.174-.26C.63 8.346 1.54 4.281 4.653 2.378c3.113-1.902 7.134-.994 9.037 2.12 1.903 3.113.995 7.134-2.119 9.037a6.304 6.304 0 01-3.416.995zm3.805-4.8l-.476-.216s-.691-.303-1.124-.52c-.043 0-.086-.043-.13-.043a.625.625 0 00-.302.087s-.043.043-.649.735a.238.238 0 01-.216.13H9.02a.328.328 0 01-.173-.087L8.63 9.73c-.475-.216-.908-.476-1.254-.822-.086-.086-.216-.173-.302-.26-.303-.302-.606-.648-.822-1.037l-.043-.087c-.043-.043-.043-.086-.087-.173 0-.086 0-.173.044-.216 0 0 .173-.216.302-.346.087-.086.13-.216.217-.303.086-.13.13-.302.086-.432-.043-.216-.562-1.384-.692-1.643a.5.5 0 00-.303-.216h-.475c-.087 0-.173.043-.26.043l-.043.043c-.086.043-.173.13-.26.173-.086.087-.13.173-.216.26a2.206 2.206 0 00-.475 1.34c0 .346.086.692.216.995l.043.13c.39.821.908 1.556 1.6 2.205l.173.173c.13.13.26.216.346.346a7.727 7.727 0 003.114 1.643c.13.043.302.043.432.086h.432c.217 0 .476-.086.65-.172.129-.087.215-.087.302-.174l.086-.086c.087-.086.173-.13.26-.216.086-.087.173-.173.216-.26.086-.173.13-.389.173-.605v-.303s-.043-.043-.13-.086z" fill="#fff"></path>
  </symbol>
  <symbol fill="none" xmlns="http://www.w3.org/2000/svg" viewBox="0 0 16 16" id="catcheck">
    <path fill-rule="evenodd" clip-rule="evenodd" d="M12.263 3.827l-3.475-1.49a2 2 0 00-1.576 0l-3.474 1.49a.667.667 0 00-.405.612v3.502a4 4 0 001.676 3.255l2.216 1.584a1.333 1.333 0 001.55 0l2.217-1.584a4 4 0 001.675-3.255V4.44a.667.667 0 00-.404-.612zM10.78 6.625a1 1 0 00-1.562-1.25L7.251 7.836l-.544-.543a1 1 0 00-1.414 1.414l.938.938a1.5 1.5 0 002.232-.123l2.318-2.897z" fill="#23B554"></path>
  </symbol>
  <symbol fill="none" xmlns="http://www.w3.org/2000/svg" viewBox="0 0 16 16" id="catvid">
    <path fill-rule="evenodd" clip-rule="evenodd" d="M2.673 7.405c-.006.13-.006.285-.006.595s0 .464.006.595a5 5 0 004.732 4.731c.13.007.285.007.595.007s.464 0 .595-.007a5 5 0 004.731-4.731c.007-.13.007-.286.007-.595 0-.31 0-.464-.007-.595a5 5 0 00-4.731-4.732c-.13-.006-.286-.006-.595-.006-.31 0-.464 0-.595.006a5 5 0 00-4.732 4.732zM8.13 6.359l1.351.773a1 1 0 010 1.736l-1.351.773a1.2 1.2 0 01-1.796-1.042V7.4A1.2 1.2 0 018.13 6.36z" fill="#FC511B"></path>
  </symbol>
  <symbol fill="none" xmlns="http://www.w3.org/2000/svg" viewBox="0 0 40 40" id="camera">
    <path d="M8.333 11.667H10a3.333 3.333 0 003.333-3.334A1.667 1.667 0 0115 6.667h10a1.667 1.667 0 011.667 1.666A3.333 3.333 0 0030 11.667h1.667A3.333 3.333 0 0135 15v15a3.333 3.333 0 01-3.333 3.333H8.333A3.333 3.333 0 015 30V15a3.334 3.334 0 013.333-3.333" stroke="#fff" stroke-width="1.5" stroke-linecap="round" stroke-linejoin="round"></path>
    <path d="M20 26.667a5 5 0 100-10 5 5 0 000 10z" stroke="#fff" stroke-width="1.5" stroke-linecap="round" stroke-linejoin="round"></path>
  </symbol>
  <symbol fill="none" xmlns="http://www.w3.org/2000/svg" viewBox="0 0 24 24" id="bed">
    <path clip-rule="evenodd" d="M20 12H4a2 2 0 00-2 2v2.933a1 1 0 001 1h18a1 1 0 001-1V14a2 2 0 00-2-2z" stroke="#777D82" stroke-width="1.5" stroke-linecap="round" stroke-linejoin="round"></path>
    <path d="M4 12V6.933a3 3 0 013-3h10a3 3 0 013 3V12m1 6v1.93M3 18v1.93" stroke="#777D82" stroke-width="1.5" stroke-linecap="round" stroke-linejoin="round"></path>
    <path d="M7.5 12v0a3 3 0 013-3h3a3 3 0 013 3v0" stroke="#777D82" stroke-width="1.5" stroke-linecap="round" stroke-linejoin="round"></path>
  </symbol>
  <symbol fill="none" xmlns="http://www.w3.org/2000/svg" viewBox="0 0 24 24" id="bedrooms">
    <path d="M12.402 11.554v.88M5.5 2.744l8.344 1.964A1.5 1.5 0 0115 6.168v15.076L6.656 19.28A1.5 1.5 0 015.5 17.82V2.744zm0 0h4.687" stroke="#777D82" stroke-width="1.5" stroke-linecap="round" stroke-linejoin="round"></path>
    <path d="M10.188 2.744H17a1.5 1.5 0 011.5 1.5v14.618" stroke="#777D82" stroke-width="1.5" stroke-linecap="round" stroke-linejoin="round"></path>
  </symbol>
   <symbol fill="none" xmlns="http://www.w3.org/2000/svg" viewBox="0 0 24 24" id="size">
    <path d="M11 17H7v-4m10-6L7 17m6-10h4v4" stroke="#777D82" stroke-width="1.5" stroke-linecap="round" stroke-linejoin="round"></path>
    <path d="M21 19a2 2 0 01-2 2H5c-1.11 0-2-.89-2-2V5a2 2 0 012-2h14a2 2 0 012 2v14z" stroke="#777D82" stroke-width="1.5" stroke-linecap="round" stroke-linejoin="round"></path>
  </symbol>
  <symbol fill="none" xmlns="http://www.w3.org/2000/svg" viewBox="0 0 40 40" id="monitor">
    <path clip-rule="evenodd" d="M30.72 28.337H9.28a4.287 4.287 0 01-4.286-4.287V9.28a4.287 4.287 0 014.287-4.286h21.437a4.287 4.287 0 014.289 4.287v14.767a4.286 4.286 0 01-4.287 4.289z" stroke="#5E6165" stroke-width="1.5" stroke-linecap="round" stroke-linejoin="round"></path>
    <path d="M35.007 21.667H4.994m18.342 6.67l.834 6.67m-7.504-6.67l-.834 6.67m-2.262-.001h12.86" stroke="#5E6165" stroke-width="1.5" stroke-linecap="round" stroke-linejoin="round"></path>
  </symbol>
  <symbol fill="none" xmlns="http://www.w3.org/2000/svg" viewBox="0 0 40 40" id="fork">
    <path d="M10.834 19.25L10.817 35m.016-20.75V5M5 5.14v7.587-.15c0 3.681 2.612 6.666 5.833 6.666 3.222 0 5.834-2.985 5.834-6.666v.15V5.14m12.499 16.527V35" stroke="#5E6165" stroke-width="1.5" stroke-linecap="round" stroke-linejoin="round"></path>
    <path clip-rule="evenodd" d="M23.333 15c0 3.682 2.612 6.667 5.833 6.667C32.388 21.667 35 18.682 35 15c0-5.523-2.612-10-5.834-10-3.221 0-5.833 4.477-5.833 10z" stroke="#5E6165" stroke-width="1.5" stroke-linecap="round" stroke-linejoin="round"></path>
  </symbol>
  <symbol fill="none" xmlns="http://www.w3.org/2000/svg" viewBox="0 0 40 40" id="park">
    <rect x="4.994" y="4.994" width="30.012" height="30.012" rx="5" stroke="#777D82" stroke-width="1.5" stroke-linecap="round" stroke-linejoin="round"></rect>
    <path d="M16.667 26.667V13.333h4.247c2.257 0 4.086 1.706 4.086 3.81v0c0 2.104-1.83 3.81-4.086 3.81h-4.247" stroke="#777D82" stroke-width="1.5" stroke-linecap="round" stroke-linejoin="round"></path>
  </symbol>
  <symbol fill="none" xmlns="http://www.w3.org/2000/svg" viewBox="0 0 40 40" id="temp">
    <path d="M20 13.333v10m2.357.977a3.333 3.333 0 11-4.714 4.714 3.333 3.333 0 014.714-4.714" stroke="#5E6165" stroke-width="1.5" stroke-linecap="round" stroke-linejoin="round"></path>
    <path clip-rule="evenodd" d="M15 20.038V10a5 5 0 1110 0v10.038c2.014 1.522 3.334 3.912 3.334 6.629a8.334 8.334 0 01-16.667 0c0-2.717 1.32-5.109 3.333-6.629z" stroke="#5E6165" stroke-width="1.5" stroke-linecap="round" stroke-linejoin="round"></path>
  </symbol>
  <symbol fill="none" xmlns="http://www.w3.org/2000/svg" viewBox="0 0 24 24" id="clock">
    <path d="M8.557 3.687a8.998 8.998 0 0111.756 4.87 8.998 8.998 0 01-4.87 11.756A8.998 8.998 0 118.557 3.687" stroke="#777D82" stroke-width="1.5" stroke-linecap="round" stroke-linejoin="round"></path>
    <path d="M11.718 7.985v4.651l3.656 2.229" stroke="#777D82" stroke-width="1.5" stroke-linecap="round" stroke-linejoin="round"></path>
  </symbol>
  <symbol fill="none" xmlns="http://www.w3.org/2000/svg" viewBox="0 0 24 24" id="k_z">
    <path d="M17.344 20.788H5.656C4.19 20.788 3 19.608 3 18.155s1.19-2.632 2.656-2.632h11.688c1.466 0 2.656 1.18 2.656 2.632 0 1.453-1.19 2.633-2.656 2.633z" stroke="#777D82" stroke-width="1.5" stroke-miterlimit="10"></path>
    <path d="M17.344 20.788c-1.467 0-2.657-1.18-2.657-2.633s1.19-2.632 2.657-2.632c1.466 0 2.656 1.18 2.656 2.632 0 1.453-1.19 2.633-2.656 2.633z" stroke="#777D82" stroke-width="1.5" stroke-miterlimit="10"></path>
    <path d="M18.405 13.943c2.125-2.106 1.063-5.265-2.125-5.265-3.187 0-4.25-1.053-4.25-3.159S8.843 2.36 6.718 3.413c0 0 2.858 1.695 1.965 5.055-.892 3.359 4.41 4.422 6.535 3.37 2.125-1.054 3.187 2.105 3.187 2.105zm.894-9.58L4.53 20.208" stroke="#777D82" stroke-width="1.5" stroke-miterlimit="10" stroke-linecap="round" stroke-linejoin="round"></path>
    <path d="M5 21L20.828 4.363" stroke="#fff" stroke-miterlimit="10"></path>
  </symbol>
  <symbol fill="none" xmlns="http://www.w3.org/2000/svg" viewBox="0 0 24 24" id="p_n">
    <path d="M12.034 11.043c8.874 0 7.598 9.652 5.069 9.652-2.53 0-2.53-1.072-5.07-1.072-2.125 0-2.125 1.072-4.25 1.072-2.126 0-3.189-9.652 4.25-9.652zm-7.44 1.609c.88 0 1.594-1.2 1.594-2.681 0-1.48-.713-2.681-1.594-2.681C3.714 7.29 3 8.49 3 9.97c0 1.481.714 2.682 1.594 2.682zm14.879-1.072c.88 0 1.594-1.2 1.594-2.682 0-1.48-.713-2.68-1.594-2.68-.88 0-1.594 1.2-1.594 2.68 0 1.481.714 2.681 1.594 2.681zm-5.314-3.218c.88 0 1.594-1.2 1.594-2.68C15.753 4.2 15.039 3 14.159 3c-.88 0-1.595 1.2-1.595 2.681 0 1.48.714 2.681 1.595 2.681zm-5.313 0c.88 0 1.594-1.2 1.594-2.68C10.44 4.2 9.727 3 8.846 3c-.88 0-1.594 1.2-1.594 2.681 0 1.48.714 2.681 1.594 2.681z" stroke="#777D82" stroke-width="1.5" stroke-miterlimit="10"></path>
    <path d="M19.473 3.536L4.595 19.623" stroke="#777D82" stroke-width="1.5" stroke-miterlimit="10" stroke-linecap="round" stroke-linejoin="round"></path>
    <path d="M5.083 20.3l15.25-16.558" stroke="#fff" stroke-miterlimit="10"></path>
  </symbol>
  <symbol fill="none" xmlns="http://www.w3.org/2000/svg" viewBox="0 0 24 24" id="v_b">
    <path d="M13.725 4.432c-2.2 6.171-4.911 10.845-6.044 10.457C6.55 14.501 7.41 9.171 9.62 3l4.105 1.432z" stroke="#777D82" stroke-width="1.5" stroke-miterlimit="10" stroke-linejoin="round"></path>
    <path d="M4 18.744l4.106 1.433" stroke="#777D82" stroke-width="1.5" stroke-miterlimit="10" stroke-linecap="round" stroke-linejoin="round"></path>
    <path d="M7.681 14.89l-1.633 4.565M18.713 4.12c.806 6.494.49 11.878-.708 12.018-1.197.14-2.82-5.007-3.626-11.501l4.334-.517z" stroke="#777D82" stroke-width="1.5" stroke-miterlimit="10" stroke-linejoin="round"></path>
    <path d="M16.436 21.21l4.324-.527m-2.755-4.545l.599 4.814m1.688-17.715L5.046 19.39" stroke="#777D82" stroke-width="1.5" stroke-miterlimit="10" stroke-linecap="round" stroke-linejoin="round"></path>
    <path d="M4.501 21.006L20.792 3.711" stroke="#fff" stroke-miterlimit="10" stroke-linecap="round" stroke-linejoin="round"></path>
  </symbol>
  <symbol fill="none" xmlns="http://www.w3.org/2000/svg" viewBox="0 0 24 24" id="letter">
    <path d="M3.36 9.315v8.925c0 1.06.86 1.92 1.92 1.92h13.44c1.06 0 1.92-.86 1.92-1.92V9.315m-11.404 4.97l-5.31 5.309m16.148 0l-5.308-5.31" stroke="#777D82" stroke-width="1.5" stroke-linecap="round" stroke-linejoin="round"></path>
    <path d="M6.24 6.357L4.212 7.722a1.92 1.92 0 000 3.186l5.64 3.794a3.85 3.85 0 004.298 0l5.64-3.793a1.92 1.92 0 000-3.187l-2.03-1.365" stroke="#777D82" stroke-width="1.5" stroke-linecap="round" stroke-linejoin="round"></path>
    <path d="M17.76 12.274V3.746a.96.96 0 00-.96-.96H7.2a.96.96 0 00-.96.96v8.528M9.12 6.24h5.76M9.12 9.6h5.76" stroke="#777D82" stroke-width="1.5" stroke-linecap="round" stroke-linejoin="round"></path>
  </symbol>
  <symbol fill="none" xmlns="http://www.w3.org/2000/svg" viewBox="0 0 24 24" id="calendar">
    <path d="M3.093 9.404h17.824m-4.475 3.906h.01m-4.447 0h.009m-4.456 0h.01m8.874 3.886h.01m-4.447 0h.009m-4.456 0h.01M16.043 2v3.29M7.965 2v3.29" stroke="#777D82" stroke-width="1.5" stroke-linecap="round" stroke-linejoin="round"></path>
    <path clip-rule="evenodd" d="M16.238 3.58H7.771C4.834 3.58 3 5.214 3 8.221v9.05C3 20.326 4.834 22 7.771 22h8.458C19.175 22 21 20.355 21 17.348V8.222c.01-3.007-1.816-4.643-4.762-4.643z" stroke="#777D82" stroke-width="1.5" stroke-linecap="round" stroke-linejoin="round"></path>
  </symbol>
  <symbol fill="none" xmlns="http://www.w3.org/2000/svg" viewBox="0 0 24 24" id="18">
    <rect x="2" y="3" width="20" height="18" rx="5" stroke="#777D82" stroke-width="1.5" stroke-linecap="round" stroke-linejoin="round"></rect>
    <path d="M7.855 9.524V15H6.428v-3.783l-.93.307-.34-1.261 2.24-.739h.457zm5.683 3.974c0 .332-.094.62-.282.863-.183.238-.437.42-.763.548-.321.127-.684.19-1.087.19-.41 0-.777-.063-1.104-.19a1.788 1.788 0 01-.763-.548 1.398 1.398 0 01-.274-.863c0-.602.316-1.045.946-1.327-.47-.32-.705-.736-.705-1.244 0-.47.177-.838.53-1.104.355-.265.811-.398 1.37-.398.553 0 1.006.133 1.36.398.354.266.531.633.531 1.104 0 .508-.235.923-.705 1.244.63.282.946.725.946 1.327zm-2.132-2.953a.724.724 0 00-.432.124.387.387 0 00-.166.324c0 .122.047.227.141.315.1.089.252.183.457.282.204-.1.354-.193.448-.282a.445.445 0 00.14-.323.361.361 0 00-.173-.316.673.673 0 00-.415-.124zm0 3.418c.238 0 .417-.047.539-.141a.471.471 0 00.182-.382.495.495 0 00-.182-.39c-.122-.105-.304-.202-.548-.29a1.784 1.784 0 00-.539.29.495.495 0 00-.182.39c0 .155.06.282.182.382.122.094.304.141.548.141zm4.536-1.054h-1.353v-1.194h1.353V10.32h1.344v1.394h1.344v1.194h-1.344v1.394h-1.344V12.91z" fill="#777D82"></path>
  </symbol>
  <symbol fill="none" xmlns="http://www.w3.org/2000/svg" viewBox="0 0 20 20" id="star">
    <path d="M11.187.983l2.506 5.286 5.13.544a1.313 1.313 0 01.697 2.33l-4.092 3.364 1.266 5.656a1.312 1.312 0 01-1.963 1.41L10 16.694l-4.736 2.878a1.315 1.315 0 01-1.964-1.41l1.271-5.655L.48 9.143a1.313 1.313 0 01.697-2.326l5.13-.544L8.812.983a1.314 1.314 0 012.375 0z" fill="#FF9431"></path>
  </symbol>
  <symbol fill="none" xmlns="http://www.w3.org/2000/svg" viewBox="0 0 20 20" id="eye">
    <path clip-rule="evenodd" d="M2.598 10.39a.822.822 0 010-.78C4.175 6.694 7.088 4.167 10 4.167s5.825 2.527 7.4 5.443a.821.821 0 010 .779c-1.576 2.916-4.489 5.443-7.401 5.443-2.913 0-5.825-2.527-7.402-5.444z" stroke="#D8DEE0" stroke-width="1.5" stroke-linecap="round" stroke-linejoin="round"></path>
    <path d="M11.768 8.232a2.5 2.5 0 11-3.536 3.536 2.5 2.5 0 013.536-3.536" stroke="#D8DEE0" stroke-width="1.429" stroke-linecap="round" stroke-linejoin="round"></path>
  </symbol>
  <symbol fill="none" xmlns="http://www.w3.org/2000/svg" viewBox="0 0 20 20" id="cal">
    <path d="M13.334 1.667V5M6.667 1.667V5M2.5 7.5h15" stroke="#D8DEE0" stroke-width="1.5" stroke-linecap="round" stroke-linejoin="round"></path>
    <path clip-rule="evenodd" d="M15.833 3.333H4.167C3.246 3.333 2.5 4.08 2.5 5v10.833c0 .921.746 1.667 1.667 1.667h11.666c.921 0 1.667-.746 1.667-1.667V5c0-.92-.746-1.667-1.667-1.667z" stroke="#D8DEE0" stroke-width="1.5" stroke-linecap="round" stroke-linejoin="round"></path>
    <path d="M10.01 10.607a.208.208 0 10.002.416.208.208 0 00-.001-.416m4.167 0a.208.208 0 10.002.417.208.208 0 00-.002-.417M5.845 13.94a.208.208 0 10.002.416.208.208 0 00-.002-.415m4.165-.001a.208.208 0 10.002.416.208.208 0 00-.001-.415" stroke="#D8DEE0" stroke-width="1.5" stroke-linecap="round" stroke-linejoin="round"></path>
  </symbol>
  <symbol fill="none" xmlns="http://www.w3.org/2000/svg" viewBox="0 0 16 16" id="arrmore">
    <path d="M6.222 11.333l3.555-3.555-3.555-3.556" stroke="#0752E4" stroke-width="2" stroke-linecap="round" stroke-linejoin="round"></path>
    <path d="M6.222 11.333l3.555-3.555-3.555-3.556" stroke="#225FFB" stroke-width="2" stroke-linecap="round" stroke-linejoin="round"></path>
    <path d="M6.222 11.333l3.555-3.555-3.555-3.556" stroke="#0A71EB" stroke-width="2" stroke-linecap="round" stroke-linejoin="round"></path>
  </symbol>
  <symbol fill="none" xmlns="http://www.w3.org/2000/svg" viewBox="0 0 32 32" id="art-f">
    <rect width="32" height="32" rx="16" fill="#4267B2"></rect>
    <path d="M17.068 26.667v-9.731h3.266l.49-3.793h-3.756v-2.42c0-1.099.305-1.847 1.88-1.847l2.008-.001V5.483c-.348-.046-1.54-.15-2.927-.15-2.895 0-4.877 1.768-4.877 5.014v2.796H9.877v3.793h3.275v9.731h3.916z" fill="#fff"></path>
  </symbol>
  <symbol fill="none" xmlns="http://www.w3.org/2000/svg" viewBox="0 0 32 32" id="art-t">
    <rect width="32" height="32" rx="16" fill="#1DA1F2"></rect>
    <path d="M23.835 12.541v.5c0 5.175-3.95 11.15-11.15 11.15-2.225 0-4.275-.65-6.025-1.75.3.025.625.05.925.05a7.933 7.933 0 004.875-1.675 3.88 3.88 0 01-3.65-2.725c.25.05.475.075.75.075.35 0 .7-.05 1.025-.15a3.891 3.891 0 01-3.15-3.825v-.05c.525.3 1.125.475 1.775.5-1.05-.7-1.75-1.9-1.75-3.275 0-.725.2-1.4.525-1.975a11.15 11.15 0 008.075 4.1 3.55 3.55 0 01-.1-.9 3.916 3.916 0 013.925-3.925c1.125 0 2.15.475 2.85 1.225.9-.175 1.725-.5 2.5-.95a4.04 4.04 0 01-1.725 2.175c.8-.1 1.55-.3 2.25-.625-.5.8-1.15 1.5-1.925 2.05z" fill="#fff"></path>
  </symbol>
  <symbol fill="none" xmlns="http://www.w3.org/2000/svg" viewBox="0 0 32 32" id="art-y">
    <rect width="32" height="32" rx="16" fill="red"></rect>
    <path fill-rule="evenodd" clip-rule="evenodd" d="M23.825 9.426a2.507 2.507 0 011.763 1.763c.428 1.565.412 4.827.412 4.827s0 3.246-.412 4.81a2.506 2.506 0 01-1.763 1.763c-1.565.412-7.825.412-7.825.412s-6.244 0-7.825-.428a2.506 2.506 0 01-1.763-1.763C6 19.262 6 16 6 16s0-3.246.412-4.81a2.557 2.557 0 011.763-1.78C9.74 8.998 16 8.998 16 8.998s6.26 0 7.825.428zM19.214 16l-5.206 3v-5.997L19.214 16z" fill="#fff"></path>
  </symbol>
  <symbol fill="none" xmlns="http://www.w3.org/2000/svg" viewBox="0 0 24 24" id="add">
    <path d="M12 8v8m4-4H8" stroke="#fff" stroke-width="2" stroke-linecap="round" stroke-linejoin="round"></path>
    <path clip-rule="evenodd" d="M12 21v0a9 9 0 01-9-9v0a9 9 0 019-9v0a9 9 0 019 9v0a9 9 0 01-9 9z" stroke="#fff" stroke-width="2" stroke-linecap="round" stroke-linejoin="round"></path>
  </symbol>
</svg>