<svg width="0" height="0" class="hidden">
  <symbol fill="none" xmlns="http://www.w3.org/2000/svg" viewBox="0 0 32 32" id="user">
    <path d="M16 .7C7.563.7.7 7.563.7 16c0 8.437 6.863 15.3 15.3 15.3 8.437 0 15.3-6.863 15.3-15.3C31.3 7.563 24.437.7 16 .7zm0 28c-4.02 0-7.605-1.884-9.933-4.81a12.424 12.424 0 016.451-4.4A6.508 6.508 0 019.5 14c0-3.584 2.916-6.5 6.5-6.5s6.5 2.916 6.5 6.5a6.514 6.514 0 01-3.019 5.49 12.42 12.42 0 016.452 4.401C23.605 26.816 20.021 28.7 16 28.7z" fill="#777D82"></path>
  </symbol>
  <symbol fill="none" xmlns="http://www.w3.org/2000/svg" viewBox="0 0 24 24" id="burger">
    <path d="M6 8h12M6 12h12M6 16h12" stroke="#777D82" stroke-width="2" stroke-linecap="round" stroke-linejoin="round"></path>
  </symbol>
  <symbol fill="none" xmlns="http://www.w3.org/2000/svg" viewBox="0 0 30 30" id="fi_heart">
    <path d="M24.515 6.768a5.913 5.913 0 00-1.92-1.308 5.824 5.824 0 00-4.533 0 5.914 5.914 0 00-1.921 1.308L15 7.931l-1.141-1.163a5.866 5.866 0 00-4.187-1.767c-1.57 0-3.077.635-4.188 1.767a6.094 6.094 0 00-1.734 4.267c0 1.6.624 3.136 1.734 4.268l1.141 1.162L15 25l8.374-8.535 1.141-1.162c.55-.56.986-1.226 1.284-1.958a6.133 6.133 0 000-4.62 6.042 6.042 0 00-1.284-1.957v0z" stroke="#777D82" stroke-width="2" stroke-linecap="round" stroke-linejoin="round"></path>
  </symbol>
  <symbol fill="none" xmlns="http://www.w3.org/2000/svg" viewBox="0 0 16 16" id="x">
    <path fill-rule="evenodd" clip-rule="evenodd" d="M8 0a8 8 0 100 16A8 8 0 008 0zM6.04 4.626A1 1 0 104.626 6.04L6.586 8l-1.96 1.96a1 1 0 001.414 1.414L8 9.414l1.96 1.96a1 1 0 001.414-1.414L9.414 8l1.96-1.96A1 1 0 009.96 4.626L8 6.586l-1.96-1.96z" fill="#AAAFB4"></path>
  </symbol>
  <symbol fill="none" xmlns="http://www.w3.org/2000/svg" viewBox="0 0 21 22" id="round">
    <path d="M10.5 4.33a6.67 6.67 0 11-3.189.812m.001 2.563V4.757H4.364" stroke="#777D82" stroke-width="1.5" stroke-linecap="round" stroke-linejoin="round"></path>
  </symbol>
  <symbol fill="none" xmlns="http://www.w3.org/2000/svg" viewBox="0 0 24 24" id="cross">
    <path d="M8 8l8 8m0-8l-8 8" stroke="#777D82" stroke-width="1.5" stroke-linecap="round" stroke-linejoin="round"></path>
  </symbol>
  <symbol fill="none" xmlns="http://www.w3.org/2000/svg" viewBox="0 0 12 12" id="rate-full">
    <g clip-path="url(#clip0)">
      <path d="M6.712.59l1.504 3.17 3.078.327a.788.788 0 01.418 1.398L9.257 7.504l.76 3.394a.787.787 0 01-1.178.846l-2.84-1.727-2.84 1.726a.789.789 0 01-1.18-.846l.764-3.393L.288 5.486A.788.788 0 01.706 4.09l3.078-.326L5.288.59a.789.789 0 011.424 0z" fill="#FF9431"></path>
    </g>
    <defs>
      <clipPath id="clip0">
        <path fill="#fff" d="M0 0h12v12H0z"></path>
      </clipPath>
    </defs>
  </symbol>
  <symbol fill="none" xmlns="http://www.w3.org/2000/svg" viewBox="0 0 20 20" id="room">
    <path clip-rule="evenodd" d="M9.537 18.333H4.259A1.758 1.758 0 012.5 16.574V7.777a1.76 1.76 0 011.76-1.759h5.277a1.76 1.76 0 011.759 1.76v8.796a1.76 1.76 0 01-1.76 1.76z" stroke="#777D82" stroke-width="1.5" stroke-linecap="round" stroke-linejoin="round"></path>
    <path d="M8.126 6.018l.816-3.047a1.76 1.76 0 012.155-1.244l5.098 1.366a1.76 1.76 0 011.244 2.155l-2.277 8.496a1.76 1.76 0 01-2.154 1.244l-1.712-.458" stroke="#777D82" stroke-width="1.5" stroke-linecap="round" stroke-linejoin="round"></path>
  </symbol>
  <symbol fill="none" xmlns="http://www.w3.org/2000/svg" viewBox="0 0 20 20" id="users">
    <path clip-rule="evenodd" d="M6.665 10a2.91 2.91 0 100-5.82 2.91 2.91 0 000 5.82zm7.503 0a2.084 2.084 0 100-4.168 2.084 2.084 0 000 4.168z" stroke="#777D82" stroke-width="1.5" stroke-linecap="round" stroke-linejoin="round"></path>
    <path d="M1.663 16.67v-.848a3.32 3.32 0 013.32-3.32h3.364a3.32 3.32 0 013.32 3.32v.848m2.501-4.169h.92a3.32 3.32 0 013.32 3.32v.848" stroke="#777D82" stroke-width="1.5" stroke-linecap="round" stroke-linejoin="round"></path>
  </symbol>
  <symbol fill="none" xmlns="http://www.w3.org/2000/svg" viewBox="0 0 16 16" id="point-cat">
    <path fill-rule="evenodd" clip-rule="evenodd" d="M2.333 6.333a5.667 5.667 0 1111.334 0c0 2.403-1.373 4.638-2.649 6.212A19.964 19.964 0 018.65 14.99l-.168.143-.047.038-.013.01-.003.004h-.002L8 14.667l-.417.52h-.001l-.004-.004-.013-.01-.046-.038a17.716 17.716 0 01-.757-.675 19.967 19.967 0 01-1.78-1.914c-1.275-1.576-2.649-3.81-2.649-6.213zm3 0a2.667 2.667 0 115.334 0 2.667 2.667 0 01-5.333 0z" fill="#E53B35"></path>
    <path d="M7.583 15.187c.244.195.59.195.834 0L8 14.667l-.417.52z" fill="#E53B35"></path>
  </symbol>
  <symbol fill="none" xmlns="http://www.w3.org/2000/svg" viewBox="0 0 12 12" id="man">
    <path d="M7.6 1.6c0 .68-.52 1.2-1.2 1.2-.68 0-1.2-.52-1.2-1.2C5.2.92 5.72.4 6.4.4c.68 0 1.2.52 1.2 1.2zm1.72 4.64c-.24-.08-1.68-.76-1.68-.76l-.8-1.6c-.28-.56-.44-.68-.8-.68h-.56c-.28 0-.4.08-.56.2L3.4 4.6c-.12.08-.2.16-.28.32l-.32 2c-.04.32.12.44.36.48.16.04.4-.04.48-.28L4 5.28l1-.68c-.16.68-.32 1.44-.4 1.72-.08.44.16.76.32 1.04.16.24 2.4 3.48 2.68 3.84.28.36.56.52.96.32.36-.16.28-.6.08-.88S6.2 6.96 6.2 6.96l.36-1.52s.28.36.4.52c.08.08.12.12.32.2.2.12 1.2.52 1.52.64.28.12.6.16.76-.08.12-.16-.04-.4-.24-.48z" fill="#777D82"></path>
    <path d="M4.32 7.6l-.48 1.48-1.24 1.6c-.2.28-.36.6 0 .84.4.28.68-.08.88-.28.2-.2.92-1.12 1.12-1.36.16-.16.2-.28.28-.44.04-.08.2-.48.28-.72L4.32 7.6z" fill="#777D82"></path>
  </symbol>
  <symbol fill="none" xmlns="http://www.w3.org/2000/svg" viewBox="0 0 17 16" id="vb">
    <path d="M14.441 1.561c-.397-.365-2.004-1.533-5.586-1.55 0 0-4.222-.255-6.28 1.633C1.429 2.79 1.025 4.464.984 6.545c-.042 2.078-.096 5.974 3.659 7.03h.003l-.003 1.61s-.023.653.406.784c.519.16.826-.336 1.322-.87.272-.295.647-.724.932-1.053 2.567.214 4.542-.279 4.766-.352.519-.17 3.454-.545 3.931-4.44.493-4.008-.24-6.547-1.559-7.693zm.436 7.41c-.404 3.253-2.782 3.458-3.22 3.599-.186.06-1.921.493-4.104.349 0 0-1.627 1.962-2.132 2.471-.08.08-.173.112-.234.096-.087-.022-.112-.125-.109-.275 0-.218.013-2.68.013-2.68-.003 0-.003 0 0 0-3.179-.88-2.993-4.196-2.958-5.931.035-1.735.362-3.16 1.332-4.117C5.203.908 8.79 1.142 8.79 1.142c3.029.012 4.479.925 4.815 1.229 1.117.96 1.687 3.25 1.27 6.6z" fill="#fff"></path>
    <path d="M10.332 6.66a.203.203 0 01-.202-.192c-.035-.688-.359-1.024-1.018-1.06a.204.204 0 01.022-.406c.871.048 1.357.548 1.402 1.444a.2.2 0 01-.192.211c-.006.003-.01.003-.012.003z" fill="#fff"></path>
    <path d="M11.368 7.006h-.003a.204.204 0 01-.199-.208c.016-.691-.182-1.251-.605-1.712-.42-.461-.999-.711-1.764-.766a.201.201 0 01-.185-.217.201.201 0 01.217-.186c.865.064 1.546.365 2.033.896.49.535.727 1.204.71 1.995a.205.205 0 01-.204.198z" fill="#fff"></path>
    <path d="M12.43 7.422a.2.2 0 01-.201-.202c-.01-1.239-.365-2.183-1.089-2.89-.713-.698-1.62-1.054-2.685-1.063a.204.204 0 010-.407c1.174.01 2.173.404 2.964 1.178.794.775 1.2 1.844 1.213 3.176a.2.2 0 01-.201.208c.003 0 .003 0 0 0zM9.16 9.167s.284.026.438-.163l.298-.375c.144-.185.492-.304.832-.115a8.3 8.3 0 01.742.474c.228.166.689.55.692.554.22.185.272.457.122.749v.006a3.122 3.122 0 01-.621.765c-.004 0-.004.003-.007.003-.214.18-.426.282-.63.305-.026.006-.055.006-.093.006a.873.873 0 01-.27-.042l-.006-.01c-.32-.089-.851-.313-1.735-.803a10.301 10.301 0 01-1.46-.963 7.475 7.475 0 01-.656-.583l-.022-.022-.022-.023a23.674 23.674 0 00-.023-.022l-.022-.023a8.034 8.034 0 01-.583-.656 10.122 10.122 0 01-.963-1.46c-.49-.886-.714-1.418-.804-1.735l-.01-.006a.872.872 0 01-.041-.269c0-.038 0-.067.006-.093.026-.208.128-.416.304-.63 0-.004.004-.004.004-.007a3.05 3.05 0 01.765-.62H5.4c.288-.151.56-.1.75.12 0 0 .387.465.553.692.157.215.368.554.474.743.189.34.07.688-.115.832l-.375.298c-.189.154-.163.439-.163.439s.554 2.106 2.634 2.634z" fill="#fff"></path>
  </symbol>
  <symbol fill="none" xmlns="http://www.w3.org/2000/svg" viewBox="0 0 17 14" id="tg">
    <path d="M2.075 5.828c4.294-1.91 7.158-3.17 8.591-3.778C14.758.312 15.608.01 16.163 0c.122-.002.395.029.571.175.15.124.19.29.21.407.02.118.044.384.024.593-.221 2.378-1.18 8.15-1.669 10.814-.206 1.128-.613 1.506-1.007 1.543-.855.08-1.505-.578-2.334-1.132-1.296-.868-2.029-1.408-3.287-2.255-1.455-.979-.512-1.517.317-2.396.217-.23 3.987-3.73 4.06-4.048.009-.04.017-.188-.069-.266-.086-.079-.213-.052-.305-.03-.13.03-2.202 1.428-6.215 4.193-.587.413-1.12.613-1.597.603-.526-.012-1.538-.304-2.29-.553C1.648 7.34.915 7.179.978 6.659c.034-.27.4-.548 1.097-.83z" fill="#fff"></path>
  </symbol>
  <symbol fill="none" xmlns="http://www.w3.org/2000/svg" viewBox="0 0 17 16" id="wa">
    <path d="M13.733 2.335C12.263.822 10.23 0 8.155 0 3.744 0 .198 3.59.24 7.957c0 1.384.39 2.724 1.038 3.935L.155 16l4.194-1.081a7.721 7.721 0 003.763.951c4.367 0 7.913-3.589 7.913-7.956a7.848 7.848 0 00-2.292-5.579zM8.155 14.53c-1.168 0-2.335-.303-3.33-.908l-.26-.13-2.508.648.65-2.464-.174-.26C.63 8.346 1.54 4.281 4.653 2.378c3.113-1.902 7.134-.994 9.037 2.12 1.903 3.113.995 7.134-2.119 9.037a6.304 6.304 0 01-3.416.995zm3.805-4.8l-.476-.216s-.691-.303-1.124-.52c-.043 0-.086-.043-.13-.043a.625.625 0 00-.302.087s-.043.043-.649.735a.238.238 0 01-.216.13H9.02a.328.328 0 01-.173-.087L8.63 9.73c-.475-.216-.908-.476-1.254-.822-.086-.086-.216-.173-.302-.26-.303-.302-.606-.648-.822-1.037l-.043-.087c-.043-.043-.043-.086-.087-.173 0-.086 0-.173.044-.216 0 0 .173-.216.302-.346.087-.086.13-.216.217-.303.086-.13.13-.302.086-.432-.043-.216-.562-1.384-.692-1.643a.5.5 0 00-.303-.216h-.475c-.087 0-.173.043-.26.043l-.043.043c-.086.043-.173.13-.26.173-.086.087-.13.173-.216.26a2.206 2.206 0 00-.475 1.34c0 .346.086.692.216.995l.043.13c.39.821.908 1.556 1.6 2.205l.173.173c.13.13.26.216.346.346a7.727 7.727 0 003.114 1.643c.13.043.302.043.432.086h.432c.217 0 .476-.086.65-.172.129-.087.215-.087.302-.174l.086-.086c.087-.086.173-.13.26-.216.086-.087.173-.173.216-.26.086-.173.13-.389.173-.605v-.303s-.043-.043-.13-.086z" fill="#fff"></path>
  </symbol>
  <symbol fill="none" xmlns="http://www.w3.org/2000/svg" viewBox="0 0 16 16" id="catcheck">
    <path fill-rule="evenodd" clip-rule="evenodd" d="M12.263 3.827l-3.475-1.49a2 2 0 00-1.576 0l-3.474 1.49a.667.667 0 00-.405.612v3.502a4 4 0 001.676 3.255l2.216 1.584a1.333 1.333 0 001.55 0l2.217-1.584a4 4 0 001.675-3.255V4.44a.667.667 0 00-.404-.612zM10.78 6.625a1 1 0 00-1.562-1.25L7.251 7.836l-.544-.543a1 1 0 00-1.414 1.414l.938.938a1.5 1.5 0 002.232-.123l2.318-2.897z" fill="#23B554"></path>
  </symbol>
  <symbol fill="none" xmlns="http://www.w3.org/2000/svg" viewBox="0 0 16 16" id="catvid">
    <path fill-rule="evenodd" clip-rule="evenodd" d="M2.673 7.405c-.006.13-.006.285-.006.595s0 .464.006.595a5 5 0 004.732 4.731c.13.007.285.007.595.007s.464 0 .595-.007a5 5 0 004.731-4.731c.007-.13.007-.286.007-.595 0-.31 0-.464-.007-.595a5 5 0 00-4.731-4.732c-.13-.006-.286-.006-.595-.006-.31 0-.464 0-.595.006a5 5 0 00-4.732 4.732zM8.13 6.359l1.351.773a1 1 0 010 1.736l-1.351.773a1.2 1.2 0 01-1.796-1.042V7.4A1.2 1.2 0 018.13 6.36z" fill="#FC511B"></path>
  </symbol>
</svg>