<svg width="0" height="0" class="hidden">
  <symbol fill="none" xmlns="http://www.w3.org/2000/svg" viewBox="0 0 32 32" id="user">
    <path d="M16 .7C7.563.7.7 7.563.7 16c0 8.437 6.863 15.3 15.3 15.3 8.437 0 15.3-6.863 15.3-15.3C31.3 7.563 24.437.7 16 .7zm0 28c-4.02 0-7.605-1.884-9.933-4.81a12.424 12.424 0 016.451-4.4A6.508 6.508 0 019.5 14c0-3.584 2.916-6.5 6.5-6.5s6.5 2.916 6.5 6.5a6.514 6.514 0 01-3.019 5.49 12.42 12.42 0 016.452 4.401C23.605 26.816 20.021 28.7 16 28.7z" fill="#777D82"></path>
  </symbol>
  <symbol fill="none" xmlns="http://www.w3.org/2000/svg" viewBox="0 0 24 24" id="burger">
    <path d="M6 8h12M6 12h12M6 16h12" stroke="#777D82" stroke-width="2" stroke-linecap="round" stroke-linejoin="round"></path>
  </symbol>
  <symbol fill="none" xmlns="http://www.w3.org/2000/svg" viewBox="0 0 30 30" id="fi_heart">
    <path d="M24.515 6.768a5.913 5.913 0 00-1.92-1.308 5.824 5.824 0 00-4.533 0 5.914 5.914 0 00-1.921 1.308L15 7.931l-1.141-1.163a5.866 5.866 0 00-4.187-1.767c-1.57 0-3.077.635-4.188 1.767a6.094 6.094 0 00-1.734 4.267c0 1.6.624 3.136 1.734 4.268l1.141 1.162L15 25l8.374-8.535 1.141-1.162c.55-.56.986-1.226 1.284-1.958a6.133 6.133 0 000-4.62 6.042 6.042 0 00-1.284-1.957v0z" stroke="#777D82" stroke-width="2" stroke-linecap="round" stroke-linejoin="round"></path>
  </symbol>
  <symbol fill="none" xmlns="http://www.w3.org/2000/svg" viewBox="0 0 16 16" id="x">
    <path fill-rule="evenodd" clip-rule="evenodd" d="M8 0a8 8 0 100 16A8 8 0 008 0zM6.04 4.626A1 1 0 104.626 6.04L6.586 8l-1.96 1.96a1 1 0 001.414 1.414L8 9.414l1.96 1.96a1 1 0 001.414-1.414L9.414 8l1.96-1.96A1 1 0 009.96 4.626L8 6.586l-1.96-1.96z" fill="#AAAFB4"></path>
  </symbol>
  <symbol fill="none" xmlns="http://www.w3.org/2000/svg" viewBox="0 0 21 22" id="round">
    <path d="M10.5 4.33a6.67 6.67 0 11-3.189.812m.001 2.563V4.757H4.364" stroke="#777D82" stroke-width="1.5" stroke-linecap="round" stroke-linejoin="round"></path>
  </symbol>
  <symbol fill="none" xmlns="http://www.w3.org/2000/svg" viewBox="0 0 24 24" id="cross">
    <path d="M8 8l8 8m0-8l-8 8" stroke="#777D82" stroke-width="1.5" stroke-linecap="round" stroke-linejoin="round"></path>
  </symbol>
</svg>